<?xml version="1.0" encoding="UTF-8" standalone="no"?>
<svg
   xmlns:dc="http://purl.org/dc/elements/1.1/"
   xmlns:cc="http://creativecommons.org/ns#"
   xmlns:rdf="http://www.w3.org/1999/02/22-rdf-syntax-ns#"
   xmlns:svg="http://www.w3.org/2000/svg"
   xmlns="http://www.w3.org/2000/svg"
   xmlns:sodipodi="http://sodipodi.sourceforge.net/DTD/sodipodi-0.dtd"
   xmlns:inkscape="http://www.inkscape.org/namespaces/inkscape"
   width="128"
   height="128"
   version="1.1"
   id="svg72"
   sodipodi:docname="chejunkie128.svg"
   viewBox="0 0 609.28 609.28"
   inkscape:version="1.0.2-2 (e86c870879, 2021-01-15)">
  <defs
     id="defs76" />
  <sodipodi:namedview
     pagecolor="#ffffff"
     bordercolor="#666666"
     borderopacity="1"
     objecttolerance="10"
     gridtolerance="10"
     guidetolerance="10"
     inkscape:pageopacity="0"
     inkscape:pageshadow="2"
     inkscape:window-width="3840"
     inkscape:window-height="2066"
     id="namedview74"
     showgrid="false"
     inkscape:zoom="11.313708"
     inkscape:cx="25.352861"
     inkscape:cy="68.197169"
     inkscape:window-x="-11"
     inkscape:window-y="-11"
     inkscape:window-maximized="1"
     inkscape:current-layer="svg72"
     scale-x="4.76"
     inkscape:pagecheckerboard="true"
     inkscape:document-rotation="0" />
  <metadata
     id="metadata7">image/svg+xml<rdf:RDF>
  <cc:Work
     rdf:about="">
    <dc:format>image/svg+xml</dc:format>
    <dc:type
       rdf:resource="http://purl.org/dc/dcmitype/StillImage" />
    <dc:title></dc:title>
  </cc:Work>
</rdf:RDF>
</metadata>
  <g
     id="g70"
     transform="matrix(0.95141327,0,0,0.99901263,-19.75005,-12.72757)">
    <title
       id="title3">Mad scientist</title>
    <g
       id="svg_1">
      <path
         stroke-miterlimit="4"
         id="path3374"
         d="m 335.29636,377.79788 c 0,0 23.03653,3.6207 23.40667,26.33249 0.0101,0.63934 52.66495,15.21436 73.14576,14.04401 20.4808,-1.17032 46.22814,-19.31049 53.25012,-25.16217 7.022,-5.85166 18.72531,-15.21433 22.23629,-27.50281 3.51099,-12.28848 5.26648,-26.33246 5.26648,-26.33246 l 30.42865,4.68131 c 0,0 1.17035,2.92587 -1.17028,13.45886 -2.3407,10.53296 -7.02204,24.57696 -14.04401,37.45059 -7.02197,12.87369 -17.5965,34.19751 -29.84348,42.71716 -13.45886,9.36264 -33.93963,17.55497 -44.47262,19.31049 -17.97693,2.99615 -45.64298,0.58514 -45.64298,0.58514 0,0 2.34067,29.25837 0,53.25016 -2.34066,23.99179 -6.43683,55.00558 -9.36267,67.29409 -2.92581,12.28852 -6.4368,23.99183 -6.4368,23.99183 l -6.43682,14.62915 -104.74479,4.68133 3.51102,-21.65118 c 0,0 -1.17035,-74.3161 -2.34067,-90.70075 -1.17035,-16.38464 1.7555,-36.86548 1.7555,-36.86548 0,0 -37.45063,25.74735 -69.04959,22.23636 -39.75693,-4.41745 -80.16777,-29.8435 -80.16777,-29.8435 l 27.5028,-30.42865 c 0,0 28.08797,22.8215 52.07981,22.23629 23.99179,-0.58514 37.45062,-6.43676 48.56877,-13.45877 11.11816,-7.022 27.50281,-17.55499 29.84347,-22.23633 2.3407,-4.68133 3.51102,-12.87365 3.51102,-12.87365"
         inkscape:connector-curvature="0"
         style="fill:#ffffff;fill-rule:evenodd;stroke:#000000;stroke-width:5.975;stroke-linecap:round;stroke-linejoin:round;stroke-miterlimit:4" />
      <path
         stroke-miterlimit="4"
         id="path3438"
         d="m 44.103065,266.9006 v -54.66432 c 0,0 -7.672184,-9.59022 -6.713158,-12.94681 0.959019,-3.35658 0.479511,-12.94679 16.782898,-15.34436 16.303391,-2.39755 32.127274,-7.19265 41.237984,-1.43852 9.110721,5.75414 9.110721,10.06975 7.192671,14.86484 -1.91804,4.79512 -8.151686,9.11075 -8.151686,9.11075 l -3.356583,58.02087 -6.233658,98.29981 -9.11071,33.0863 -20.618992,-0.95901 -8.151695,-16.7829 z"
         inkscape:connector-curvature="0"
         style="fill:#3498db;fill-opacity:1;fill-rule:evenodd;stroke:#000000;stroke-width:5.975;stroke-linecap:round;stroke-linejoin:round;stroke-miterlimit:4" />
      <path
         stroke-miterlimit="4"
         id="path1317"
         d="m 296.58444,405.94653 c 0,0 -1.8497,-7.39865 -19.42148,-6.47384 -17.57177,0.92483 -30.51939,12.94763 -41.61738,19.42147 -11.98274,6.98993 -35.14359,8.32349 -40.69255,-2.7745 -5.549,-11.09796 0,-37.91806 0,-37.91806 0,0 -18.49665,-6.47382 -18.49665,-18.49661 0,-12.0228 13.87249,-17.57178 13.87249,-17.57178 l 6.4738,-17.57181 c 0,0 -14.7973,-9.24832 -18.49663,-20.34628 -3.69931,-11.09799 -2.77448,-10.17316 2.77451,-12.02283 5.54898,-1.84964 7.39866,0.92484 12.02279,-3.69931 4.62416,-4.62415 9.24832,-32.36908 9.24832,-32.36908 0,0 -13.87245,-11.09796 -10.17314,-31.44426 3.69933,-20.34627 3.69933,-20.34627 7.39865,-24.97043 3.69931,-4.62417 10.17315,-11.09799 10.17315,-11.09799 0,0 -20.34629,-6.4738 -33.29393,-1.84965 -12.94764,4.62414 -36.06841,17.5718 -36.06841,17.5718 0,0 6.4738,-19.42146 13.87247,-33.29393 7.39865,-13.87246 46.24154,-44.39189 46.24154,-44.39189 l -62.8885,25.89527 c 0,0 9.24829,-19.42147 16.64696,-26.8201 7.39865,-7.39865 17.57177,-22.19595 27.74492,-27.744936 10.17315,-5.548981 24.97046,-10.173141 24.97046,-10.173141 0,0 -50.86573,-1.849655 -34.21877,-1.849655 16.64697,0 -27.74492,2.77449 -27.74492,2.77449 0,0 1.84964,-13.872467 24.97043,-25.895275 23.12077,-12.0228 54.56502,-18.496616 54.56502,-18.496616 L 168.0329,39.71343 c 0,0 18.49663,-19.421453 41.61742,-19.421453 23.12077,0 38.84289,2.774494 49.94087,8.323481 11.09799,5.548985 17.57177,14.797298 17.57177,14.797298 0,0 10.17316,-14.797298 22.19596,-20.346285 12.02279,-5.548986 36.99325,-6.473816 36.99325,-6.473816 l -37.91806,27.744932 c 0,0 35.14356,-12.022804 50.8657,-12.022804 15.72213,0 32.36911,6.473816 32.36911,6.473816 l -36.06846,11.097973 c 0,0 48.09122,0.924831 65.663,6.47382 17.57181,5.548985 30.51947,11.097969 42.54223,20.346283 12.0228,9.248314 15.72214,22.195946 15.72214,22.195946 l -46.24155,-6.473816 c 0,0 31.44425,7.398643 39.76777,25.895275 8.32342,18.49662 6.47378,32.3691 6.47378,32.3691 l -34.21875,-16.64699 c 0,0 16.64694,18.49663 18.49661,33.29391 1.84967,14.79732 -0.9248,24.04561 -0.9248,24.04561 l -28.66977,-21.2711 c 0,0 8.32346,17.57179 7.39862,23.12077 -0.9248,5.549 -1.84967,9.24833 -1.84967,9.24833 l -21.27109,-16.64696 10.17313,24.04561 -2.77448,5.54898 -13.87246,-13.87247 -3.69934,14.79729 c 0,0 15.72216,9.2483 18.49664,22.19595 2.77447,12.94762 -1.84967,20.3463 -6.47382,31.44426 -4.62417,11.09796 -7.39865,12.0228 -7.39865,12.0228 0,0 2.77448,13.87247 -3.69937,19.42145 -6.47378,5.54898 -18.49658,4.62414 -18.49658,4.62414 0,0 -5.54898,33.29395 -15.72211,43.46707 -10.17316,10.17316 -32.36911,28.66977 -32.36911,28.66977"
         inkscape:connector-curvature="0"
         style="fill:#d6d6d6;fill-opacity:1;fill-rule:evenodd;stroke:#000000;stroke-width:4.78;stroke-linecap:round;stroke-linejoin:round;stroke-miterlimit:4" />
      <path
         id="path3356"
         d="m 205.83835,189.71466 -14.67627,33.75543 9.35102,30.94954 -5.38129,25.92807 -5.43735,10.63323 h -12.71944 l 3.91368,19.56839 15.81397,14.01208 -6.51902,16.80808 -11.74101,13.20865 -0.4892,15.65466 16.89959,7.96881 -1.24491,27.25424 7.82735,19.07916 23.48204,-0.97842 32.28781,-17.12231 14.21394,-8.09213 25.89084,6.07632 1.92686,1.51628 10.80293,9.79451 3.91366,4.89209 6.84894,1.46762 6.35971,-3.91366 12.23022,-11.74103 -7.82736,-13.69785 -3.91366,-15.16546 10.29408,-2.48433 27.435,-24.40253 11.96653,-32.40755 7.72908,-13.50238 c 2.99661,0.89801 16.96727,-6.49533 11.53413,-0.74077 l 8.31656,-19.07916 12.93562,-34.57765 -7.04545,-27.88493 -15.0476,-5.22616 -10.11618,-1.11594 -7.12299,1.09528 -6.36075,3.77921 3.217,-18.84375 -5.17382,-10.01959 -9.29498,-4.89209 -26.41727,4.40288 -51.85617,20.05757 -9.29501,4.89209 -15.65469,-5.8705 -32.41963,-20.5318 -17.12234,-3.91367 z"
         inkscape:connector-curvature="0"
         style="fill:#f2d6c6;fill-opacity:1;fill-rule:evenodd;stroke-width:1px"
         sodipodi:nodetypes="cccccccccccccccccccccccccccccccccccccccccccccccc" />
      <path
         stroke-miterlimit="4"
         id="path3349"
         d="m 267.65909,218.1427 c 0,0 -11.02506,13.78136 -17.64011,20.94763 -6.61505,7.16629 -15.98636,19.29386 -15.98636,19.29386 0,0 -8.26878,4.9613 -13.78131,1.65374 -5.51253,-3.30749 -18.7426,-7.16629 -18.7426,-7.16629 -6.93956,-5.9879 -8.24426,-15.3931 -10.44465,-24.25511 1.7141,-14.11277 3.34618,-25.89755 13.57095,-34.99001 l 6.79626,-8.55898 c 0,0 13.78132,2.20501 20.94762,6.61503 7.16628,4.41004 19.84509,13.23007 25.35765,17.08885 5.51251,3.85875 11.02503,9.92255 9.92255,9.37128 z"
         inkscape:connector-curvature="0"
         style="fill:#fefefe;fill-rule:evenodd;stroke:#000000;stroke-width:3.983;stroke-linecap:round;stroke-linejoin:round;stroke-miterlimit:4"
         sodipodi:nodetypes="cccccccccsc" />
      <path
         stroke-miterlimit="4"
         id="path3360"
         d="m 296.58444,405.94653 c 0,0 -1.8497,-7.39865 -19.42148,-6.47384 -17.57177,0.92483 -30.51939,12.94763 -41.61738,19.42147 -11.98274,6.98993 -35.14359,8.32349 -40.69255,-2.7745 -5.549,-11.09796 0,-37.91806 0,-37.91806 0,0 -18.49665,-6.47382 -18.49665,-18.49661 0,-12.0228 13.87249,-17.57178 13.87249,-17.57178 l 6.4738,-17.57181 c 0,0 -14.7973,-9.24832 -18.49663,-20.34628 -3.69931,-11.09799 -2.77448,-10.17316 2.77451,-12.02283 5.54898,-1.84964 7.39866,0.92484 12.02279,-3.69931 4.62416,-4.62415 9.24832,-32.36908 9.24832,-32.36908 0,0 -13.87245,-11.09796 -10.17314,-31.44426 3.69933,-20.34627 3.69933,-20.34627 7.39865,-24.97043 3.69931,-4.62417 10.17315,-11.09799 10.17315,-11.09799 0,0 -20.34629,-6.4738 -33.29393,-1.84965 -12.94764,4.62414 -36.06841,17.5718 -36.06841,17.5718 0,0 6.4738,-19.42146 13.87247,-33.29393 7.39865,-13.87246 46.24154,-44.39189 46.24154,-44.39189 l -62.8885,25.89527 c 0,0 9.24829,-19.42147 16.64696,-26.8201 7.39865,-7.39865 17.57177,-22.19595 27.74492,-27.744936 10.17315,-5.548981 24.97046,-10.173141 24.97046,-10.173141 0,0 -50.86573,-1.849655 -34.21877,-1.849655 16.64697,0 -27.74492,2.77449 -27.74492,2.77449 0,0 1.84964,-13.872467 24.97043,-25.895275 23.12077,-12.0228 54.56502,-18.496616 54.56502,-18.496616 L 168.0329,39.71343 c 0,0 18.49663,-19.421453 41.61742,-19.421453 23.12077,0 38.84289,2.774494 49.94087,8.323481 11.09799,5.548985 17.57177,14.797298 17.57177,14.797298 0,0 10.17316,-14.797298 22.19596,-20.346285 12.02279,-5.548986 36.99325,-6.473816 36.99325,-6.473816 l -37.91806,27.744932 c 0,0 35.14356,-12.022804 50.8657,-12.022804 15.72213,0 32.36911,6.473816 32.36911,6.473816 l -36.06846,11.097973 c 0,0 48.09122,0.924831 65.663,6.47382 17.57181,5.548985 30.51947,11.097969 42.54223,20.346283 12.0228,9.248314 15.72214,22.195946 15.72214,22.195946 l -46.24155,-6.473816 c 0,0 31.44425,7.398643 39.76777,25.895275 8.32342,18.49662 6.47378,32.3691 6.47378,32.3691 l -34.21875,-16.64699 c 0,0 16.64694,18.49663 18.49661,33.29391 1.84967,14.79732 -0.9248,24.04561 -0.9248,24.04561 l -28.66977,-21.2711 c 0,0 8.32346,17.57179 7.39862,23.12077 -0.9248,5.549 -1.84967,9.24833 -1.84967,9.24833 l -21.27109,-16.64696 10.17313,24.04561 -2.77448,5.54898 -13.87246,-13.87247 -3.69934,14.79729 c 0,0 15.72216,9.2483 18.49664,22.19595 2.77447,12.94762 -1.84967,20.3463 -6.47382,31.44426 -4.62417,11.09796 -7.39865,12.0228 -7.39865,12.0228 0,0 2.77448,13.87247 -3.69937,19.42145 -6.47378,5.54898 -18.49658,4.62414 -18.49658,4.62414 0,0 -5.54898,33.29395 -15.72211,43.46707 -10.17316,10.17316 -32.36911,28.66977 -32.36911,28.66977"
         inkscape:connector-curvature="0"
         style="fill:none;fill-rule:evenodd;stroke:#000000;stroke-width:4.78;stroke-linecap:round;stroke-linejoin:round;stroke-miterlimit:4"
         sodipodi:nodetypes="ccsccscccccccccscscccscscsccsscsccsccsccccccscccccccccsccccsc" />
      <path
         stroke-miterlimit="4"
         id="path2211"
         d="m 254.42899,270.51175 c 4.69546,-7.22168 10.51199,-14.20908 18.16876,-18.34686 9.24869,-2.87006 18.52826,5.76977 19.01977,14.8461 2.0557,9.65683 -9.14734,12.63815 -16.46951,12.70047 -9.9231,2.16281 -18.50208,7.79986 -26.80876,13.33047 -7.98392,4.41 -17.40254,6.86322 -23.78668,13.64056 -5.89577,5.20322 -12.31552,-1.03906 -8.58396,-7.35693 3.25159,-16.03876 10.91001,-31.00204 21.42484,-43.48062 8.0625,-11.94663 18.83146,-21.91298 26.34929,-34.2072 2.8446,-3.90298 4.24011,-10.33786 -1.8385,-10.36525 -4.80176,-7.89745 1.9667,-13.74493 1.14288,-24.87323 -2.9274,-7.87306 -4.51514,-13.60323 -9.97045,-17.89365 -7.95094,-8.45185 -15.39514,-11.24868 -29.46313,-18.39033 -17.77646,-3.52516 -23.87785,-4.58908 -5.12962,3.94719 1.32545,8.40384 -13.81108,1.62326 -17.52646,7.21232 -7.43781,3.3501 10.18403,1.48371 6.43078,7.16227 -4.02928,-1.0046 -21.7149,12.28361 -7.85746,7.53903 6.69497,2.21515 11.95359,7.61835 18.47593,10.40611 6.41152,2.61623 13.46446,3.90798 18.93167,8.50481 7.04907,5.32309 13.721,11.16324 21.28458,15.7621 1.20514,0.93371 2.35144,1.94934 3.37231,3.08359"
         inkscape:connector-curvature="0"
         style="fill:none;fill-opacity:0.75;fill-rule:evenodd;stroke:#000000;stroke-width:5.97449;stroke-linecap:round;stroke-linejoin:round;stroke-miterlimit:4" />
      <path
         stroke-miterlimit="4"
         id="path3102"
         d="m 254.42899,233.57779 c 7.61749,-5.05185 13.14248,-12.4961 20.00943,-18.42116 7.3558,-1.36955 14.72644,-5.23024 16.90103,-12.8974 4.79593,-7.856 11.29184,-14.48758 16.45755,-22.0979 3.8956,-5.47887 9.18069,-9.64934 14.54431,-13.55954 4.90106,-4.5309 9.96176,-9.27803 16.52133,-11.1996 11.82697,-5.12024 24.93085,-7.73302 37.80869,-6.28252 -5.67176,2.43325 -14.38074,2.54842 -17.59946,7.84575 5.582,-0.17219 11.18503,0.80242 16.86951,1.27718 5.50909,-0.21031 3.57153,1.19876 14.66876,6.91788 -3.05158,5.28579 -10.29813,-1.43598 -14.76886,1.81065 -1.96497,2.88295 6.30884,4.65204 7.83142,7.84293 3.35275,2.54281 7.08172,10.17386 -0.34998,7.64013 -9.28586,-3.17353 -10.52157,-1.363 -4.59198,6.42426 5.41577,8.02331 -8.44565,-0.56778 -12.43496,-0.42838 -8.49216,-2.10414 -17.26511,-0.50254 -25.83115,0.2297 -9.06641,3.50149 -15.63269,5.69789 -22.9567,9.35022 -6.68518,3.79966 -13.0802,6.09677 -20.11816,9.0563 -5.21002,0.6171 -8.71176,5.62186 -14.01453,5.92722"
         inkscape:connector-curvature="0"
         style="fill:#d6d6d6;fill-opacity:1;fill-rule:evenodd;stroke:#000000;stroke-width:5.97449;stroke-linecap:round;stroke-linejoin:round;stroke-miterlimit:4" />
      <path
         stroke-miterlimit="4"
         id="path3108"
         d="m 284.19666,212.07893 c -5.49622,2.31964 -7.58381,8.69623 -7.87589,14.21207 -2.31729,9.14609 3.46237,17.64195 8.76868,24.5332 3.6873,4.63934 9.76835,6.4087 15.61508,7.22426 9.47818,1.5907 18.55606,-0.14389 28.59174,-3.08572 7.11825,-5.25774 16.06042,-8.66652 20.79165,-16.58145 4.00717,-6.83452 7.21124,-14.3662 8.25186,-22.26723 1.04886,-7.44035 -1.38379,-15.34059 -7.13766,-20.33705 -2.3624,-1.87836 -7.04205,-6.65147 -9.12387,-5.74818 l -57.88159,22.05011 z"
         inkscape:connector-curvature="0"
         style="fill:#fefefe;fill-rule:evenodd;stroke:#000000;stroke-width:5.97449;stroke-linejoin:round;stroke-miterlimit:4"
         sodipodi:nodetypes="ccccccccccc" />
      <path
         stroke-miterlimit="4"
         id="path3124"
         d="m 330.50192,230.82155 c -8.68811,2.14288 -10.91095,-9.10535 -9.14181,-15.38166 0.18216,-7.61326 8.58603,-14.44465 15.73864,-10.07565 7.52204,3.18691 5.92041,15.81516 -2.43722,16.45572 -8.73694,2.12943 -6.53134,-13.09357 0.53784,-7.22278 0.81452,0.97267 1.0036,2.32518 0.81506,3.54555"
         inkscape:connector-curvature="0"
         style="fill:none;fill-opacity:0.75;fill-rule:evenodd;stroke:#000000;stroke-width:3.983;stroke-linecap:round;stroke-linejoin:round;stroke-miterlimit:4" />
      <path
         stroke-miterlimit="4"
         id="path3126"
         d="m 216.39256,203.81013 c -2.65533,0.13523 -3.25277,3.41706 -1.65378,6.61504 1.52724,3.05447 5.27095,-1.88289 5.51253,-2.205 2.30106,-3.06807 -2.3672,-4.11171 -3.85875,-4.41004 z"
         inkscape:connector-curvature="0"
         style="fill:none;fill-opacity:0.75;fill-rule:evenodd;stroke:#000000;stroke-width:4.97874;stroke-miterlimit:4" />
      <path
         stroke-miterlimit="4"
         id="path3128"
         d="m 280.33789,160.26114 c -0.69635,-11.82308 -0.57602,-17.57848 3.23377,-28.74402 1.43277,-3.68944 2.85568,-8.97586 5.38208,-11.49651 0.57867,-0.62616 4.69046,-5.35573 5.16546,-6.0647"
         inkscape:connector-curvature="0"
         style="fill:none;fill-rule:evenodd;stroke:#808080;stroke-width:3.983;stroke-linecap:round;stroke-linejoin:round;stroke-miterlimit:4" />
      <path
         stroke-miterlimit="4"
         id="path3136"
         d="m 286.95294,159.15866 c 2.56876,-6.07146 4.17673,-12.84596 8.86865,-17.73843 3.34137,-3.4859 6.34543,-7.41106 10.4372,-10.0708 0.83212,-0.48783 1.77109,-0.83817 2.74423,-0.85593"
         inkscape:connector-curvature="0"
         style="fill:none;fill-opacity:0.75;fill-rule:evenodd;stroke:#999999;stroke-width:3.983;stroke-linecap:round;stroke-linejoin:round;stroke-miterlimit:4" />
      <path
         stroke-miterlimit="4"
         id="path3138"
         d="m 295.22171,160.26114 c 1.80801,-2.58095 3.28751,-5.6543 6.18594,-7.19869 2.75611,-3.14904 5.22245,-6.03622 9.22525,-8.43881 3.82367,-2.29898 8.14392,-2.90333 12.42386,-4.30455 2.24167,-0.968 4.75403,-0.22356 6.89389,0.64821"
         inkscape:connector-curvature="0"
         style="fill:none;fill-opacity:0.75;fill-rule:evenodd;stroke:#a8a8a8;stroke-width:3.983;stroke-linecap:round;stroke-linejoin:round;stroke-miterlimit:4;stroke-opacity:1" />
      <path
         stroke-miterlimit="4"
         id="path3148"
         d="m 261.59528,135.45477 c 1.26355,3.96332 4.83755,6.47576 6.92941,9.93958 2.55585,2.57396 3.32532,6.27815 3.83063,9.73758 0.40414,2.49391 0.74936,5.05838 1.91882,7.33426"
         inkscape:connector-curvature="0"
         style="fill:none;fill-opacity:0.75;fill-rule:evenodd;stroke:#999999;stroke-width:3.983;stroke-linecap:round;stroke-linejoin:round;stroke-miterlimit:4" />
      <path
         stroke-miterlimit="4"
         id="path3152"
         d="m 247.81398,142.06981 c 3.03242,2.47767 7.44963,2.74232 10.02895,5.85406 4.79205,5.35634 8.16186,11.81073 10.91867,18.40107"
         inkscape:connector-curvature="0"
         style="fill:none;fill-opacity:1;fill-rule:evenodd;stroke:#a8a8a8;stroke-width:3.983;stroke-linecap:round;stroke-linejoin:round;stroke-miterlimit:4;stroke-opacity:1" />
      <path
         stroke-miterlimit="4"
         id="path3156"
         d="m 263.24905,60.484356 c 12.95447,-0.689068 19.8451,5.512531 25.35764,14.883839 5.51251,9.371292 3.85876,24.806385 -7.16629,31.972675 -11.02506,7.16629 -17.08887,8.26879 -32.52396,6.06377 -15.43506,-2.20501 -18.74257,-22.601363 -12.12754,-35.280181 6.61503,-12.678818 13.5057,-16.951035 26.46015,-17.640102 z"
         inkscape:connector-curvature="0"
         style="fill:#6a526e;fill-opacity:1;fill-rule:evenodd;stroke:#000000;stroke-width:3.983;stroke-linecap:round;stroke-linejoin:round;stroke-miterlimit:4" />
      <path
         stroke-miterlimit="4"
         id="path3158"
         d="m 261.04404,76.470695 c 0,0 17.08883,-2.756264 15.98636,7.717545 -1.10251,10.473801 -6.06382,13.230072 -14.88385,12.127563 -8.82006,-1.102501 -15.98633,-2.756264 -14.88382,-8.268799 1.10249,-5.512527 3.85874,-8.268791 7.16626,-9.3713 3.30755,-1.102509 8.26879,-1.653755 6.61505,-2.205009 z"
         inkscape:connector-curvature="0"
         style="fill:#9696ce;fill-opacity:1;fill-rule:evenodd;stroke:#000000;stroke-width:3.983;stroke-linecap:round;stroke-linejoin:round;stroke-miterlimit:4" />
      <path
         stroke-miterlimit="4"
         id="path3160"
         d="m 352.55203,77.02195 c -10.47381,-3.652054 -27.01141,-0.551254 -32.52392,11.576317 -5.51255,12.127563 -1.65378,26.460133 14.88382,33.626423 16.53759,7.16629 38.03646,-12.12757 35.83145,-24.255131 -2.20502,-12.127563 -7.71753,-17.295555 -18.19135,-20.947609 z"
         inkscape:connector-curvature="0"
         style="fill:#6a526e;fill-opacity:1;fill-rule:evenodd;stroke:#000000;stroke-width:3.983;stroke-linecap:round;stroke-linejoin:round;stroke-miterlimit:4" />
      <path
         stroke-miterlimit="4"
         id="path3162"
         d="m 349.24451,88.047005 c 0,0 -12.12754,-2.756264 -14.33258,5.512535 -2.20499,8.26878 5.51254,9.92255 11.57635,10.4738 6.06375,0.55125 11.02502,0.55125 12.12753,-5.512519 1.10248,-6.063789 -6.61502,-9.371307 -6.61502,-9.371307 z"
         inkscape:connector-curvature="0"
         style="fill:#9696ce;fill-opacity:1;fill-rule:evenodd;stroke:#000000;stroke-width:3.983;stroke-linecap:round;stroke-linejoin:round;stroke-miterlimit:4" />
      <path
         stroke-miterlimit="4"
         id="path3168"
         d="m 370.19214,106.23835 c 0,0 12.6788,8.26881 13.23007,17.6401 0.55124,9.37131 -2.75626,17.08885 -2.75626,17.08885 0,0 -2.20504,-11.02507 -6.61505,-15.43508 -4.41,-4.41003 -12.12756,-9.92256 -12.12756,-9.92256"
         inkscape:connector-curvature="0"
         style="fill:#6a526e;fill-opacity:1;fill-rule:evenodd;stroke:#000000;stroke-width:3.983;stroke-linecap:round;stroke-linejoin:round;stroke-miterlimit:4" />
      <path
         stroke-miterlimit="4"
         id="path3170"
         d="m 198.75801,323.01675 c 0,0 12.67326,-3.99472 21.4933,1.51783 8.82006,5.51251 13.23007,9.37127 24.25513,9.37127 11.02505,0 23.15265,-11.02508 29.2164,-15.98632 6.06381,-4.96131 8.82007,-0.55127 18.74262,-3.30756 9.92254,-2.75623 14.88385,-8.26877 20.9476,-14.88382 6.06381,-6.61502 6.61505,-13.78131 9.92257,-22.60135 3.3075,-8.8201 15.9863,-24.25516 21.49884,-24.25516 5.51255,0 18.74259,17.64011 19.29389,22.60141 0.55124,4.96125 0,35.28019 -3.85877,44.65146 -3.85879,9.37131 -23.15262,31.42145 -30.87021,30.87018 -7.71753,-0.55124 -14.88382,-4.96127 -19.84509,-4.41 -4.96127,0.55124 -28.66513,23.15261 -34.72894,23.70385 -6.06379,0.55127 -17.08881,-6.06378 -22.05008,-4.96127 -4.96129,1.10251 -8.26883,7.16629 -14.33261,7.16629 -6.06377,0 -11.5763,0 -15.43511,-3.30753 -3.85875,-3.30749 -2.20498,-8.26879 -9.37127,-10.47378 -7.16629,-2.20502 -11.02506,3.30749 -16.5376,-0.55127 -5.51253,-3.85877 -6.40672,-13.12162 -6.40672,-13.12162"
         inkscape:connector-curvature="0"
         style="fill:#ffffff;fill-opacity:1;fill-rule:evenodd;stroke:#000000;stroke-width:3.983;stroke-linecap:round;stroke-linejoin:round;stroke-miterlimit:4"
         sodipodi:nodetypes="ccsccccscscccsscccc" />
      <path
         stroke-miterlimit="4"
         id="path3172"
         d="M 223.00755,326.73956 212.5338,357.05847"
         inkscape:connector-curvature="0"
         style="fill:none;fill-opacity:0.75;fill-rule:evenodd;stroke:#000000;stroke-width:3.983;stroke-linecap:round;stroke-linejoin:round;stroke-miterlimit:4" />
      <path
         stroke-miterlimit="4"
         id="path3174"
         d="m 242.30144,334.45709 -2.75627,36.93399"
         inkscape:connector-curvature="0"
         style="fill:none;fill-opacity:0.75;fill-rule:evenodd;stroke:#000000;stroke-width:3.983;stroke-linecap:round;stroke-linejoin:round;stroke-miterlimit:4" />
      <path
         stroke-miterlimit="4"
         id="path3176"
         d="m 266.55658,325.63705 4.96127,44.10025"
         inkscape:connector-curvature="0"
         style="fill:none;fill-opacity:0.75;fill-rule:evenodd;stroke:#000000;stroke-width:3.983;stroke-linecap:round;stroke-linejoin:round;stroke-miterlimit:4" />
      <path
         stroke-miterlimit="4"
         id="path3178"
         d="m 292.46545,315.71451 8.2688,34.72894"
         inkscape:connector-curvature="0"
         style="fill:none;fill-opacity:0.75;fill-rule:evenodd;stroke:#000000;stroke-width:3.983;stroke-linecap:round;stroke-linejoin:round;stroke-miterlimit:4" />
      <path
         stroke-miterlimit="4"
         id="path3180"
         d="m 314.51556,300.83066 20.94764,45.75403"
         inkscape:connector-curvature="0"
         style="fill:none;fill-opacity:0.75;fill-rule:evenodd;stroke:#000000;stroke-width:3.983;stroke-linecap:round;stroke-linejoin:round;stroke-miterlimit:4" />
      <path
         stroke-miterlimit="4"
         id="path3182"
         d="m 326.09189,275.47305 33.07516,43.54898"
         inkscape:connector-curvature="0"
         style="fill:none;fill-opacity:0.75;fill-rule:evenodd;stroke:#000000;stroke-width:3.983;stroke-linecap:round;stroke-linejoin:round;stroke-miterlimit:4" />
      <path
         stroke-miterlimit="4"
         id="path3184"
         d="m 357.51334,247.91038 c 0,0 12.12756,6.61506 15.43505,12.12755 3.30753,5.51255 3.85877,18.74262 3.85877,24.80643 0,6.06375 1.65375,22.60132 1.65375,22.60132"
         inkscape:connector-curvature="0"
         style="fill:none;fill-opacity:0.75;fill-rule:evenodd;stroke:#000000;stroke-width:3.983;stroke-linecap:round;stroke-linejoin:round;stroke-miterlimit:4" />
      <path
         id="path3353"
         d="m 380.97522,264.56366 c 0,0 -0.48923,5.38129 3.91363,6.84891 4.40293,1.46762 8.31659,-0.97843 11.25184,-5.87052 2.93521,-4.89209 4.89205,-13.20865 2.93521,-16.63311 -1.95682,-3.42443 -7.33811,-9.78417 -11.2518,-8.80576 -3.91367,0.97844 -12.33437,6.32651 -12.2302,9.78419 0.10574,3.50968 5.51885,7.52498 6.35971,10.2734 0.85872,2.80682 -0.48919,3.42446 -0.97839,4.40289 z"
         inkscape:connector-curvature="0"
         style="fill:#e2b28a;fill-opacity:1;fill-rule:evenodd;stroke-width:1px"
         sodipodi:nodetypes="cccscssc" />
      <path
         stroke-miterlimit="4"
         id="path3188"
         d="m 399.40854,250.66664 c 0,0 -3.85877,-9.92255 -8.82007,-9.92255 -4.96127,0 -16.53757,2.20501 -15.43506,10.47381 1.10251,8.26879 7.16629,7.16629 7.16629,12.6788 0,5.51254 -3.85879,10.47384 -3.85879,10.47384 l -1.6257,9.11899"
         inkscape:connector-curvature="0"
         style="fill:none;fill-opacity:0.75;fill-rule:evenodd;stroke:#000000;stroke-width:3.983;stroke-linecap:round;stroke-linejoin:round;stroke-miterlimit:4" />
      <path
         stroke-miterlimit="4"
         id="path3208"
         d="m 323.33563,84.739487 c 0,0 -12.12756,-7.717537 -17.08884,-7.717537 -4.96127,0 -14.33258,3.307518 -14.33258,3.307518 l 0.55124,10.473808 c 0,0 9.37131,-1.102509 13.23007,0.551254 3.85877,1.653755 12.1276,6.615028 12.1276,6.615028 z"
         inkscape:connector-curvature="0"
         style="fill:#6a526e;fill-opacity:1;fill-rule:evenodd;stroke:#000000;stroke-width:3.983;stroke-linecap:round;stroke-linejoin:round;stroke-miterlimit:4" />
      <path
         stroke-miterlimit="4"
         id="path3367"
         d="m 194.34244,373.0448 12.67882,4.96127"
         inkscape:connector-curvature="0"
         style="fill:none;fill-opacity:0.75;fill-rule:evenodd;stroke:#000000;stroke-width:4.97874;stroke-linecap:round;stroke-linejoin:round;stroke-miterlimit:4" />
      <path
         stroke-miterlimit="4"
         id="path3369"
         d="m 295.77298,263.34549 c 0,0 4.24045,3.23968 10.30423,2.68842 6.06378,-0.55124 12.64493,-2.62061 12.64493,-2.62061"
         inkscape:connector-curvature="0"
         style="fill:none;fill-rule:evenodd;stroke-width:4.97874;stroke-linecap:round;stroke-linejoin:round;stroke-miterlimit:4" />
      <path
         stroke-miterlimit="4"
         id="path3410"
         d="m 327.68921,377.21274 c -25.74735,29.2583 -20.4808,30.42865 -18.72531,33.93963 1.75546,3.51102 -1.75549,6.43683 4.09616,8.19236 5.85165,1.75546 10.53299,2.92581 18.72531,-5.85169 8.19232,-8.77749 13.63162,-13.09781 11.11816,-16.38464 z"
         inkscape:connector-curvature="0"
         style="fill:#f2d6c6;fill-rule:evenodd;stroke-width:3;stroke-miterlimit:4" />
      <path
         stroke-miterlimit="4"
         id="path3371"
         d="m 296.58444,405.94653 c 0,0 10.62397,1.69486 12.37946,5.20584 1.75546,3.51102 -1.75549,6.43683 4.09616,8.19236 5.85165,1.75546 10.53299,2.92581 18.72531,-5.85169 8.19232,-8.77749 13.63162,-13.09781 11.11816,-16.38464 l -15.21432,-19.89566"
         inkscape:connector-curvature="0"
         style="fill:#f2d6c6;fill-opacity:1;fill-rule:evenodd;stroke:#000000;stroke-width:5.97449;stroke-miterlimit:4"
         sodipodi:nodetypes="cccssc" />
      <path
         stroke-miterlimit="4"
         id="path3380"
         d="M 308.9639,440.99585 291.99408,421.10019"
         inkscape:connector-curvature="0"
         style="fill:none;fill-opacity:0.75;fill-rule:evenodd;stroke:#000000;stroke-width:3.983;stroke-linecap:round;stroke-linejoin:round;stroke-miterlimit:4" />
      <path
         stroke-miterlimit="4"
         id="path3382"
         d="m 352.26617,421.68536 4.68137,-22.23629"
         inkscape:connector-curvature="0"
         style="fill:none;fill-opacity:0.75;fill-rule:evenodd;stroke:#000000;stroke-width:3.983;stroke-linecap:round;stroke-linejoin:round;stroke-miterlimit:4" />
      <path
         stroke-miterlimit="4"
         id="path3384"
         d="m 293.16437,425.78152 c 0,0 -7.02194,16.96985 -7.60712,25.16217 -0.5852,8.19233 -1.75552,21.06595 -1.75552,21.06595"
         inkscape:connector-curvature="0"
         style="fill:none;fill-opacity:0.75;fill-rule:evenodd;stroke:#000000;stroke-width:5.77497;stroke-linecap:round;stroke-miterlimit:4;stroke-dasharray:none"
         sodipodi:nodetypes="ccc" />
      <path
         stroke-miterlimit="4"
         id="path3386"
         d="m 287.89792,451.52887 c 0,0 18.14014,9.94781 40.37643,8.77747 22.23633,-1.17032 46.81333,-22.23633 49.73914,-22.82148 2.92581,-0.58517 12.28848,15.79947 10.53299,45.64292 -1.75549,29.84347 -16.38464,121.12948 -16.38464,121.12948"
         inkscape:connector-curvature="0"
         style="fill:none;fill-opacity:0.75;fill-rule:evenodd;stroke:#000000;stroke-width:3.983;stroke-linecap:round;stroke-linejoin:round;stroke-miterlimit:4" />
      <path
         stroke-miterlimit="4"
         id="path3390"
         d="m 367.4805,462.06186 c 11.70334,0 5.85168,21.06592 -2.92581,19.31042 -8.7775,-1.75546 -7.02201,-15.79946 2.92581,-19.31042 z"
         inkscape:connector-curvature="0"
         style="fill:#020202;fill-rule:evenodd;stroke:#000000;stroke-width:3.983;stroke-miterlimit:4" />
      <path
         stroke-miterlimit="4"
         id="path3400"
         d="m 367.4805,507.70477 c 11.11816,0.58521 5.85168,23.99182 -3.51099,23.99182 -9.36267,0 -9.36267,-26.33245 3.51099,-23.99182 z"
         inkscape:connector-curvature="0"
         style="fill:#020202;fill-rule:evenodd;stroke:#000000;stroke-width:3.983;stroke-miterlimit:4" />
      <path
         stroke-miterlimit="4"
         id="path3402"
         d="m 363.96951,562.12524 c 9.94785,1.17029 3.51099,23.40668 -2.92584,22.23633 -6.43683,-1.17035 -9.36264,-22.23633 2.92584,-22.23633 z"
         inkscape:connector-curvature="0"
         style="fill:#020202;fill-rule:evenodd;stroke:#000000;stroke-width:3.983;stroke-miterlimit:4" />
      <path
         stroke-miterlimit="4"
         id="path3421"
         d="m 114.10356,491.90527 c 0,0 23.99179,-21.65109 39.20612,-39.20611 15.21432,-17.55496 31.59897,-42.13196 31.59897,-42.13196 0,0 -22.82148,-8.7775 -53.25011,-46.22812 -30.42865,-37.45065 -30.42865,-60.27209 -30.42865,-60.27209 0,0 10.533,-11.11817 15.21433,-22.82154 4.68133,-11.70328 6.08172,-17.87782 -3.28092,-21.97398 -9.31852,-4.37203 -40.63625,-3.67839 -43.737942,12.83299 -4.649115,1.75167 -13.063105,49.85121 -7.211435,51.6067 5.851654,1.75549 33.515543,-38.64407 33.515543,-38.64407 0,0 5.419874,-3.99113 3.079211,3.03091 -2.34066,7.02197 -16.304099,5.43597 -17.474433,8.36181 -1.170334,2.92584 -19.148693,18.71307 -16.808025,25.14987 2.34066,6.43686 23.83002,8.20459 23.83002,8.20459 0,0 -0.585167,23.99182 -2.925835,36.2803 -2.340668,12.28849 -0.585167,23.40668 -6.436821,26.91764 -5.851669,3.51101 -8.777496,10.53299 -5.266502,20.48083 3.511002,9.94785 4.681328,21.65116 15.214325,39.20612 10.532982,17.55502 17.931294,29.55936 25.162154,39.20611 z"
         inkscape:connector-curvature="0"
         style="fill:#000000;fill-rule:evenodd;stroke:#000000;stroke-width:5.975;stroke-linecap:round;stroke-linejoin:round;stroke-miterlimit:4"
         sodipodi:nodetypes="cccsccccsccsccscscc" />
      <path
         id="path3423"
         d="m 153.30968,391.84192 c -0.10805,0 -20.10819,27.2151 -29.55582,35.98277 -11.10831,10.85017 -30.438459,29.00014 -30.438459,29.00014 l 11.981139,19.32031 c 0,0 26.94716,-27.54214 38.06532,-41.00094 11.11817,-13.45884 22.82147,-32.18415 22.82147,-32.18415 z"
         inkscape:connector-curvature="0"
         style="fill:#ffcc00;fill-opacity:1;fill-rule:evenodd;stroke:#000000;stroke-width:1.9915px"
         sodipodi:nodetypes="ccccccc" />
      <path
         stroke-miterlimit="4"
         id="path3428"
         d="m 64.020538,272.52701 c 0,0 -8.46114,-4.23053 -17.8624,-2.35031 -9.401264,1.88025 -14.939764,4.26547 -19.272593,13.63186 -2.852463,6.1662 6.110823,9.87131 6.110823,14.57193 0,4.70063 -6.580885,5.64075 -8.461136,9.40128 -2.732843,5.46567 -2.628958,11.12015 0,12.22162 7.176481,3.00683 9.40126,10.81143 9.40126,10.81143 0,0 1.018051,4.96909 -5.640757,7.99112 -0.860655,0.39056 0.940126,5.17068 4.23057,8.46112 3.87624,3.87625 11.751575,6.11084 11.751575,6.11084 0,0 -3.760506,17.3923 0.470066,25.38339 4.230568,7.99106 2.350315,12.22165 10.811451,16.45224 8.46114,4.23056 17.392338,6.11081 17.392338,6.11081 0,0 -1.880249,3.29041 -0.940125,6.5809 0.940125,3.29041 1.880249,7.521 1.880249,7.521 l 1.880257,6.11081 6.580879,3.29043 37.605065,-44.656 -16.92228,-54.05728 -11.751579,-8.46112 -3.290443,30.08404 -4.230568,33.37451 -7.991074,10.34137 -11.281517,7.521 -13.347108,-7.12773 -4.515292,-15.43529 -1.880253,-20.68277 -0.940125,-2.35031 c 0,0 11.751575,-0.94013 15.512085,-2.8204 3.760502,-1.88025 7.050949,-2.35035 8.461136,-7.99109 1.410187,-5.64075 0.940125,-5.17069 -2.820381,-8.46112 -3.760506,-3.29047 -5.170692,-10.81147 -2.820377,-14.1019 2.350315,-3.29044 4.700634,-0.47003 4.700634,-6.11078 0,-5.64081 3.760498,-19.27262 2.350311,-23.50318 -1.410187,-4.23059 -6.110821,-17.39236 -5.170691,-17.86242 z"
         inkscape:connector-curvature="0"
         style="fill:#000000;fill-rule:evenodd;stroke:#000000;stroke-width:5.975;stroke-linecap:round;stroke-linejoin:round;stroke-miterlimit:4"
         sodipodi:nodetypes="cccscccccccccccccccccccccccccsccscc" />
      <path
         id="path3432"
         d="m 34.876621,331.755 c 0,0 15.982147,0 21.15284,-0.94018 5.170696,-0.94006 7.991077,-3.29041 7.991077,-3.29041"
         inkscape:connector-curvature="0"
         style="fill:#ffffff;fill-rule:evenodd;stroke:#ffffff;stroke-width:1.9915px;stroke-opacity:1" />
      <path
         stroke-miterlimit="4"
         id="path3440"
         d="m 51.295738,196.41243 c 0,0 11.508274,2.87706 17.741928,1.91803 6.233643,-0.95902 16.303383,-6.23366 16.303383,-6.23366"
         inkscape:connector-curvature="0"
         style="fill:#3498db;fill-opacity:1;fill-rule:evenodd;stroke:#000000;stroke-width:3.983;stroke-linecap:round;stroke-linejoin:round;stroke-miterlimit:4" />
      <path
         id="path3442"
         d="m 61.365479,212.23628 c 4.795113,0 4.315605,6.23364 4.315605,6.23364 v 21.09853 c 0,0 0,3.35658 -2.877071,3.83609 -2.877068,0.47952 -5.754135,-3.3566 -5.754135,-3.3566 l 0.959023,-24.45506 c 0,0 0,-3.3566 3.356579,-3.3566 z"
         inkscape:connector-curvature="0"
         style="fill:#ffffff;fill-rule:evenodd;stroke:#000000;stroke-width:1px;stroke-opacity:1" />
      <path
         stroke-miterlimit="4"
         d="m 65.201584,254.67313 a 3.596338,4.55536 0 1 1 -0.02148,-0.49715 l -3.574856,0.49715 z"
         id="path3446"
         inkscape:connector-curvature="0"
         style="opacity:0;fill:#ffffff;fill-rule:nonzero;stroke-width:2;stroke-linecap:round;stroke-linejoin:round;stroke-miterlimit:4;stroke-dashoffset:0;marker-start:none;marker-mid:none;marker-end:none" />
      <path
         stroke-miterlimit="4"
         d="m 65.681099,253.95386 a 4.555361,4.7951181 0 1 1 -9.110722,0 4.555361,4.7951181 0 1 1 9.110722,0 z"
         id="path3449"
         inkscape:connector-curvature="0"
         style="fill:#ffffff;fill-rule:nonzero;stroke:#000000;stroke-width:0.9996;stroke-linecap:round;stroke-linejoin:round;stroke-miterlimit:4;stroke-dasharray:none;stroke-dashoffset:0;stroke-opacity:1;marker-start:none;marker-mid:none;marker-end:none" />
      <path
         stroke-miterlimit="4"
         id="path3452"
         d="m 55.64505,153.07829 c 9.782997,0.48915 11.739594,12.22876 2.445747,14.18535 -9.293839,1.95659 -9.293839,-3.42404 -9.293839,-6.8481 0,-3.42404 6.358944,-6.35894 6.848092,-7.33725 z"
         inkscape:connector-curvature="0"
         style="fill:#3498db;fill-opacity:1;fill-rule:evenodd;stroke:#000000;stroke-width:3.983;stroke-linecap:round;stroke-linejoin:round;stroke-miterlimit:4" />
      <path
         stroke-miterlimit="4"
         id="path3454"
         d="m 83.03743,148.67595 c 0,0 7.337242,5.8698 5.869797,8.31555 -1.467453,2.44574 -3.9132,4.8915 -7.826401,4.40234 -3.913185,-0.48916 -7.826385,-2.44575 -5.380646,-7.8264 2.445755,-5.38064 2.934906,-4.89149 7.33725,-4.89149 z"
         inkscape:connector-curvature="0"
         style="fill:#3498db;fill-opacity:1;fill-rule:evenodd;stroke:#000000;stroke-width:3.983;stroke-linecap:round;stroke-linejoin:round;stroke-miterlimit:4" />
      <path
         stroke-miterlimit="4"
         id="path3456"
         d="m 97.711922,105.14164 c 6.848098,0.48914 18.587678,21.03343 0,22.01173 -18.587685,0.9783 -12.228737,-22.01173 0,-22.01173 z"
         inkscape:connector-curvature="0"
         style="fill:#3498db;fill-opacity:1;fill-rule:evenodd;stroke:#000000;stroke-width:3.983;stroke-linecap:round;stroke-linejoin:round;stroke-miterlimit:4" />
      <path
         stroke-miterlimit="4"
         id="path3458"
         d="m 62.982296,115.41378 c 14.674488,0 18.288456,24.45748 2.445751,24.45748 -15.65279,0 -16.631088,-22.01173 -2.445751,-24.45748 z"
         inkscape:connector-curvature="0"
         style="fill:#3498db;fill-opacity:1;fill-rule:evenodd;stroke:#000000;stroke-width:3.983;stroke-linecap:round;stroke-linejoin:round;stroke-miterlimit:4" />
      <path
         stroke-miterlimit="4"
         id="path3460"
         d="m 72.765289,76.281807 c 12.228737,0 10.761292,18.587692 0,18.098541 -10.761288,-0.489159 -13.207043,-13.207047 0,-18.098541 z"
         inkscape:connector-curvature="0"
         style="fill:#3498db;fill-opacity:1;fill-rule:evenodd;stroke:#000000;stroke-width:3.983;stroke-linecap:round;stroke-linejoin:round;stroke-miterlimit:4" />
      <path
         stroke-miterlimit="4"
         id="path3464"
         d="m 80.591682,39.106438 c 12.717888,0.489147 8.804695,17.120235 0,18.587685 -8.804688,1.467449 -15.652786,-14.674488 0,-18.587685 z"
         inkscape:connector-curvature="0"
         style="fill:#3498db;fill-opacity:1;fill-rule:evenodd;stroke:#000000;stroke-width:3.983;stroke-linecap:round;stroke-linejoin:round;stroke-miterlimit:4" />
      <path
         stroke-miterlimit="4"
         id="path4361"
         d="m 465.91763,329.36716 c 0,0 6.61716,6.61715 60.5723,14.25232 53.9552,7.63519 65.1535,4.07208 65.1535,4.07208 L 578.91809,208.73157 c 0,0 7.63513,3.56306 22.90552,2.54503 15.27032,-1.01802 31.04968,-9.67121 38.68481,-14.76131 7.6352,-5.09013 16.28833,-32.57671 16.28833,-32.57671 0,0 -9.6712,-1.52703 -15.77929,3.05407 -6.10816,4.5811 -20.36048,17.81538 -29.01362,18.32438 -8.65319,0.50902 -19.8515,0.50902 -19.8515,-4.07208 0,-4.5811 13.74335,-13.23428 21.37848,-23.4145 7.63526,-10.18023 11.19831,-23.92351 11.19831,-28.50461 0,-4.58112 -4.07215,-17.81541 -10.18024,-20.36046 -6.10816,-2.54505 -9.67121,-4.5811 -13.23432,-0.509 -3.56304,4.07207 -0.50897,8.14416 0.50904,14.76132 1.018,6.61714 3.05407,18.8334 -5.09009,27.48659 -8.14423,8.65318 -15.27039,16.28836 -19.85144,17.30638 -4.58112,1.01803 -11.70734,2.03604 -11.70734,-1.52704 0,-3.56308 7.63526,-16.28835 9.16223,-24.94155 1.52704,-8.65318 6.10816,-19.85141 -5.09008,-31.55868 -11.19819,-11.707254 -21.37848,-14.761315 -27.99561,-13.743287 -6.61713,1.018021 -19.34241,3.56308 -18.83337,10.689227 0.50897,7.12615 2.03601,6.10814 15.27032,11.19824 13.23425,5.09012 16.28833,11.70726 17.81537,19.85142 1.52704,8.1442 0,20.36045 -9.16223,26.9776 -9.16217,6.61715 -18.3244,12.21625 -27.99561,10.68924 -9.67117,-1.52703 -12.72525,-7.63517 -10.6892,-13.23429 2.03604,-5.59913 7.12616,-9.16219 8.14416,-12.21627 1.01801,-3.05406 2.03601,-9.1622 -8.14416,-6.61714 -10.18021,2.54506 -17.3064,9.67122 -18.32444,17.81538 -1.018,8.14417 -4.07208,15.27033 0.50904,23.92351 4.58114,8.6532 15.77935,11.19826 26.97757,11.70726 11.19824,0.50902 14.76135,2.03604 15.77935,6.10814 1.01807,4.07208 -9.6712,24.43253 -17.30639,39.70285 -7.63513,15.27034 -32.06769,52.93715 -40.21185,66.68047 -8.14414,13.74328 -10.18021,13.74328 -9.1622,19.85141 z"
         inkscape:connector-curvature="0"
         style="fill:#000000;fill-rule:evenodd;stroke:#000000;stroke-width:5.97449;stroke-linecap:round;stroke-linejoin:round;stroke-miterlimit:4" />
      <path
         id="path4363"
         d="m 496.96735,286.10123 -10.68927,19.34243 c 0,0 14.76135,11.70722 40.21185,15.77933 25.45056,4.07209 53.44617,1.52704 53.44617,1.52704 v -19.34241 c 0,0 -18.83338,4.58109 -45.30195,-2.5451 -26.46859,-7.1261 -38.17581,-13.23425 -37.6668,-14.76129 z"
         inkscape:connector-curvature="0"
         style="fill:#ffcc00;fill-rule:evenodd;stroke:#000000;stroke-width:1.9915px;stroke-linecap:round;stroke-linejoin:round" />
      <path
         stroke-miterlimit="4"
         id="path4365"
         d="m 538.70624,185.31703 c 0,0 9.16217,-6.10814 24.43255,-1.01802 15.27027,5.09012 14.25226,10.68924 14.25226,10.68924"
         inkscape:connector-curvature="0"
         style="fill:none;fill-opacity:0.75;fill-rule:evenodd;stroke:#ffffff;stroke-width:1.9915;stroke-linecap:round;stroke-linejoin:round;stroke-miterlimit:4" />
      <path
         id="path5255"
         d="m 37.518719,297.87555 c 0,0 10.137623,1.8432 20.275246,0.46078 10.137615,-1.38238 18.892841,-10.59842 18.892841,-10.59842"
         inkscape:connector-curvature="0"
         style="fill:#000000;fill-rule:evenodd;stroke:#ffffff;stroke-width:1.9915px;stroke-opacity:1" />
      <path
         id="path5257"
         d="m 70.696396,273.91388 c 0,0 -0.9216,7.83365 4.608009,11.52002 5.52961,3.68643 13.379164,1.53069 13.379164,1.53069 0,0 -11.583631,1.06465 -12.966039,5.67262 -1.382401,4.60806 -0.873926,12.61114 -0.873926,12.61114"
         inkscape:connector-curvature="0"
         style="fill:#000000;fill-opacity:1;fill-rule:evenodd;stroke:#ffffff;stroke-width:1.9915px"
         sodipodi:nodetypes="ccccc" />
    </g>
  </g>
  <text
     xml:space="preserve"
     style="font-style:normal;font-variant:normal;font-weight:normal;font-stretch:normal;font-size:96px;line-height:25px;font-family:'Comic Sans MS';-inkscape-font-specification:'Comic Sans MS';letter-spacing:0px;word-spacing:0px;fill:#000000;fill-opacity:1;stroke:none"
     x="882.08575"
     y="1376.6346"
     id="text4573" />
  <text
     xml:space="preserve"
     style="font-style:normal;font-variant:normal;font-weight:normal;font-stretch:normal;font-size:44.8px;line-height:30px;font-family:Verdana;-inkscape-font-specification:Verdana;letter-spacing:0px;word-spacing:0px;fill:#000000;fill-opacity:1;stroke:none;stroke-width:1.2"
     x="1802.8475"
     y="1929.3722"
     id="text4595" />
  <text
     xml:space="preserve"
     style="font-style:normal;font-variant:normal;font-weight:normal;font-stretch:normal;font-size:44.8px;line-height:30px;font-family:Verdana;-inkscape-font-specification:Verdana;letter-spacing:0px;word-spacing:0px;fill:#000000;fill-opacity:1;stroke:none;stroke-width:2.4;stroke-miterlimit:4;stroke-dasharray:none"
     x="657.39856"
     y="2185.3184"
     id="text4689" />
  <text
     xml:space="preserve"
     style="font-style:normal;font-variant:normal;font-weight:normal;font-stretch:normal;font-size:44.8px;line-height:30px;font-family:Verdana;-inkscape-font-specification:Verdana;letter-spacing:0px;word-spacing:0px;fill:#000000;fill-opacity:1;stroke:none;stroke-width:2.4;stroke-miterlimit:4;stroke-dasharray:none"
     x="1435.1613"
     y="1996.5726"
     id="text4693" />
  <path
     style="fill:none;stroke:#000000;stroke-width:4.76px;stroke-linecap:butt;stroke-linejoin:miter;stroke-opacity:1"
     d="m 380.91215,2030.2145 -10.46234,-1.9632 -13.48478,2.5443 -3.56201,11.1949 3.56201,-10.9405 1.01772,-15.0113 -5.93712,-13.0728"
     id="path4573"
     inkscape:connector-curvature="0"
     sodipodi:nodetypes="ccccccc" />
  <path
     style="fill:#ffffff;stroke:#f2d6c6;stroke-width:4.76px;stroke-linecap:butt;stroke-linejoin:miter;stroke-opacity:1"
     d="m 312.13938,2188.4579 c -1.12543,0.8192 -3.8034,2.9421 -6.04271,4.6434"
     id="path4587"
     inkscape:connector-curvature="0"
     sodipodi:nodetypes="cc" />
  <path
     style="fill:none;stroke:#000000;stroke-width:4.6132px;stroke-linecap:butt;stroke-linejoin:miter;stroke-opacity:1"
     d="m 168.66993,2161.5455 12.70144,-28.2177"
     id="path4589"
     inkscape:connector-curvature="0"
     sodipodi:nodetypes="cc" />
  <path
     style="fill:#c6c2a3;fill-opacity:1;stroke:#000000;stroke-width:0;stroke-linecap:butt;stroke-linejoin:miter;stroke-miterlimit:4;stroke-dasharray:none;stroke-opacity:1"
     d="m 127.10687,2280.542 22.14516,-25.6408 c 6.67675,4.4649 13.32798,8.4964 21.05644,11.9783 -4.68365,9.3037 -9.97112,18.2048 -16.33459,26.3885 -9.32261,-3.8147 -18.36289,-8.0334 -26.86701,-12.726 z"
     id="path4572"
     inkscape:connector-curvature="0"
     sodipodi:nodetypes="ccccc" />
  <path
     style="fill:#c6c2a3;fill-opacity:1;stroke:#000000;stroke-width:0;stroke-linecap:butt;stroke-linejoin:miter;stroke-miterlimit:4;stroke-dasharray:none;stroke-opacity:1"
     d="m 493.85,2176.5844 c 9.38269,2.6621 17.5906,4.3538 24.6925,5.1319 1.89071,-6.2227 4.34652,-15.6183 4.23937,-19.3747 l -25.43624,-3.57 c -0.9796,6.12 -2.00664,11.877 -3.49563,17.8128 z"
     id="path4574"
     inkscape:connector-curvature="0"
     sodipodi:nodetypes="ccccc" />
  <path
     style="fill:none;stroke:#e2b28a;stroke-width:4.7675;stroke-linecap:round;stroke-linejoin:miter;stroke-miterlimit:4;stroke-dasharray:none;stroke-opacity:1"
     d="m 277.13134,2079.4276 c 6.65548,2.2099 14.19174,3.6435 24.20516,-0.041"
     id="path4576"
     inkscape:connector-curvature="0"
     sodipodi:nodetypes="cc" />
  <path
     style="fill:none;stroke:#000000;stroke-width:4.76px;stroke-linecap:butt;stroke-linejoin:miter;stroke-opacity:1"
     d="m 273.99946,2076.4505 c 0.81772,2.3907 1.24779,4.8663 0.73629,8.2042"
     id="path4580"
     inkscape:connector-curvature="0"
     sodipodi:nodetypes="cc" />
</svg>
